<?xml version="1.0" encoding="UTF-8" standalone="no"?>
<!DOCTYPE svg PUBLIC "-//W3C//DTD SVG 20010904//EN"
              "http://www.w3.org/TR/2001/REC-SVG-20010904/DTD/svg10.dtd">

<svg xmlns="http://www.w3.org/2000/svg"
     width="0.666667in" height="0.666667in"
     viewBox="0 0 60 60">
  <path id="Выделение"
        fill="none" stroke="black" stroke-width="1"
        d="M 27.00,4.00
           C 21.40,4.99 22.69,6.47 23.00,12.00
             23.00,12.00 21.00,6.00 21.00,6.00
             12.52,4.21 16.54,10.11 19.00,14.00
             19.00,14.00 12.00,11.00 12.00,11.00
             12.00,11.00 11.00,14.00 11.00,14.00
             11.00,14.00 15.00,17.00 15.00,17.00
             15.00,17.00 14.00,18.00 14.00,18.00
             12.61,16.79 8.07,12.08 6.80,11.74
             4.36,11.08 2.82,13.56 3.66,15.71
             4.73,18.47 7.32,16.98 12.00,23.00
             12.00,23.00 6.00,21.00 6.00,21.00
             6.00,21.00 5.00,27.00 5.00,27.00
             5.00,27.00 11.00,26.00 11.00,26.00
             11.00,26.00 11.00,30.00 11.00,30.00
             9.40,29.68 5.71,28.59 4.29,28.99
             1.91,29.68 1.92,32.74 3.60,33.93
             6.29,35.85 7.54,32.57 12.00,37.00
             10.27,37.44 2.84,38.81 2.04,39.82
             0.27,42.02 3.28,47.14 7.00,43.00
             9.87,47.13 11.18,47.37 14.00,43.00
             14.00,43.00 16.00,43.00 16.00,43.00
             16.00,43.00 17.00,44.00 17.00,44.00
             17.00,44.00 15.00,49.00 15.00,49.00
             15.00,49.00 19.00,50.00 19.00,50.00
             19.00,50.00 19.00,46.00 19.00,46.00
             20.04,50.98 18.30,49.49 17.70,53.11
             17.23,55.94 19.67,57.11 21.42,55.92
             23.83,54.29 21.78,51.94 27.00,49.00
             27.00,49.00 26.00,55.00 26.00,55.00
             26.00,55.00 31.00,54.00 31.00,54.00
             31.00,54.00 30.00,49.00 30.00,49.00
             33.98,51.54 33.09,53.65 33.00,58.00
             43.21,57.15 34.14,53.56 40.00,47.00
             40.00,47.00 42.00,53.00 42.00,53.00
             47.76,50.69 45.35,48.43 42.00,45.00
             42.00,45.00 43.00,44.00 43.00,44.00
             44.03,45.16 47.32,49.31 48.43,49.83
             50.78,50.92 52.89,48.49 52.26,46.28
             51.78,44.61 47.52,42.14 46.00,41.00
             46.00,41.00 54.00,42.00 54.00,42.00
             54.00,42.00 54.00,38.00 54.00,38.00
             56.41,38.08 61.32,36.93 58.29,33.62
             55.30,30.34 51.41,35.16 50.00,27.00
             50.00,27.00 57.00,28.00 57.00,28.00
             56.44,21.26 54.53,22.34 49.00,24.00
             49.29,21.54 49.21,20.40 51.22,18.58
             52.82,17.14 55.46,16.82 56.04,14.73
             56.64,12.53 54.65,10.08 52.21,10.74
             51.04,11.06 46.55,15.75 45.00,17.00
             46.56,13.81 47.17,13.10 44.00,11.00
             46.43,7.14 44.06,5.89 42.24,6.45
             42.24,6.45 37.00,11.00 37.00,11.00
             38.57,7.01 39.57,4.26 34.00,5.00
             34.00,5.00 32.16,10.00 32.16,10.00
             32.14,8.22 32.88,3.74 32.16,2.32
             31.33,-0.15 28.56,-0.45 27.00,4.00 Z
           M 32.00,2.00
           C 32.00,2.00 31.00,5.00 31.00,5.00
             31.00,5.00 29.00,5.00 29.00,5.00
             29.00,5.00 28.00,2.00 28.00,2.00
             28.00,2.00 32.00,2.00 32.00,2.00 Z
           M 26.00,5.00
           C 26.00,5.00 26.00,9.00 26.00,9.00
             26.00,9.00 26.00,5.00 26.00,5.00 Z
           M 29.00,6.00
           C 29.00,6.00 28.00,10.00 28.00,10.00
             28.00,10.00 29.00,6.00 29.00,6.00 Z
           M 48.00,18.00
           C 47.15,23.92 49.06,25.95 48.66,31.00
             48.04,38.81 42.73,45.94 35.00,47.92
             31.06,48.80 28.06,47.02 22.00,47.92
             19.31,44.36 18.44,43.20 14.00,42.00
             14.00,42.00 15.00,39.00 15.00,39.00
             15.00,39.00 11.00,39.00 11.00,39.00
             11.00,39.00 12.23,35.82 12.23,35.82
             12.23,35.82 13.00,19.00 13.00,19.00
             16.54,17.18 18.19,15.56 20.00,12.00
             20.00,12.00 33.00,10.90 33.00,10.90
             33.00,10.90 48.00,18.00 48.00,18.00 Z
           M 44.00,11.00
           C 44.00,11.00 44.00,12.00 44.00,12.00
             44.00,12.00 43.00,11.00 43.00,11.00
             43.00,11.00 44.00,11.00 44.00,11.00 Z
           M 55.00,12.00
           C 53.80,15.42 53.54,15.38 50.00,16.00
             50.00,16.00 52.00,11.00 52.00,11.00
             52.00,11.00 55.00,12.00 55.00,12.00 Z
           M 7.00,12.00
           C 7.00,12.00 8.00,16.00 8.00,16.00
             8.00,16.00 5.00,17.00 5.00,17.00
             5.00,17.00 4.00,13.00 4.00,13.00
             4.00,13.00 7.00,12.00 7.00,12.00 Z
           M 45.00,13.00
           C 45.00,13.00 45.00,14.00 45.00,14.00
             45.00,14.00 44.00,13.00 44.00,13.00
             44.00,13.00 45.00,13.00 45.00,13.00 Z
           M 26.00,14.65
           C 5.79,22.76 16.50,50.47 36.00,44.35
             46.14,41.17 49.38,26.96 42.61,19.11
             38.26,14.06 32.15,13.39 26.00,14.65 Z
           M 29.00,15.37
           C 49.10,14.75 49.59,40.88 33.00,43.65
             22.18,45.46 13.93,33.92 17.74,24.00
             19.65,19.00 24.08,16.51 29.00,15.37 Z
           M 9.00,16.00
           C 9.00,16.00 9.00,17.00 9.00,17.00
             9.00,17.00 8.00,16.00 8.00,16.00
             8.00,16.00 9.00,16.00 9.00,16.00 Z
           M 50.00,16.00
           C 50.00,16.00 50.00,17.00 50.00,17.00
             50.00,17.00 49.00,16.00 49.00,16.00
             49.00,16.00 50.00,16.00 50.00,16.00 Z
           M 56.00,24.00
           C 56.00,24.00 55.00,27.00 55.00,27.00
             55.00,27.00 52.00,25.00 52.00,25.00
             52.00,25.00 56.00,24.00 56.00,24.00 Z
           M 9.00,31.00
           C 9.00,31.00 4.00,34.00 4.00,34.00
             4.00,34.00 3.00,33.00 3.00,33.00
             3.00,33.00 3.00,31.00 3.00,31.00
             3.00,31.00 4.00,30.00 4.00,30.00
             4.00,30.00 9.00,31.00 9.00,31.00 Z
           M 51.00,33.00
           C 51.00,33.00 51.00,34.00 51.00,34.00
             51.00,34.00 50.00,33.00 50.00,33.00
             50.00,33.00 51.00,33.00 51.00,33.00 Z
           M 58.00,37.00
           C 58.00,37.00 54.00,34.00 54.00,34.00
             56.87,34.55 56.87,34.29 58.00,37.00 Z
           M 54.00,38.00
           C 54.00,38.00 49.00,35.00 49.00,35.00
             49.00,35.00 54.00,38.00 54.00,38.00 Z
           M 10.00,39.00
           C 10.00,39.00 10.00,40.00 10.00,40.00
             10.00,40.00 9.00,39.00 9.00,39.00
             9.00,39.00 10.00,39.00 10.00,39.00 Z
           M 8.00,40.00
           C 8.00,40.00 5.00,44.00 5.00,44.00
             5.00,44.00 3.00,40.00 3.00,40.00
             3.00,40.00 8.00,40.00 8.00,40.00 Z
           M 13.00,40.00
           C 13.00,40.00 9.00,42.00 9.00,42.00
             9.00,42.00 13.00,40.00 13.00,40.00 Z
           M 46.00,43.00
           C 46.00,43.00 46.00,44.00 46.00,44.00
             46.00,44.00 45.00,43.00 45.00,43.00
             45.00,43.00 46.00,43.00 46.00,43.00 Z
           M 47.00,44.00
           C 47.00,44.00 47.00,45.00 47.00,45.00
             47.00,45.00 46.00,44.00 46.00,44.00
             46.00,44.00 47.00,44.00 47.00,44.00 Z
           M 48.00,45.00
           C 48.00,45.00 48.00,46.00 48.00,46.00
             48.00,46.00 47.00,45.00 47.00,45.00
             47.00,45.00 48.00,45.00 48.00,45.00 Z
           M 52.00,46.00
           C 52.00,46.00 49.00,50.00 49.00,50.00
             49.00,50.00 48.00,46.00 48.00,46.00
             48.00,46.00 52.00,46.00 52.00,46.00 Z
           M 18.00,47.00
           C 18.00,47.00 18.00,48.00 18.00,48.00
             18.00,48.00 17.00,47.00 17.00,47.00
             17.00,47.00 18.00,47.00 18.00,47.00 Z
           M 43.00,48.00
           C 43.00,48.00 45.00,51.00 45.00,51.00
             42.88,50.17 42.48,50.33 43.00,48.00 Z
           M 22.00,50.00
           C 22.00,50.00 22.00,51.00 22.00,51.00
             22.00,51.00 21.00,50.00 21.00,50.00
             21.00,50.00 22.00,50.00 22.00,50.00 Z
           M 21.00,52.00
           C 21.00,52.00 22.00,53.00 22.00,53.00
             22.00,53.00 21.00,56.00 21.00,56.00
             21.00,56.00 18.00,55.00 18.00,55.00
             18.00,55.00 18.00,53.00 18.00,53.00
             18.00,53.00 19.00,52.00 19.00,52.00
             19.00,52.00 21.00,52.00 21.00,52.00 Z
           M 36.00,52.00
           C 36.55,55.10 37.05,55.69 34.00,57.00
             34.00,57.00 36.00,52.00 36.00,52.00 Z" />
</svg>
